<?xml version="1.0" standalone="no"?>
<!DOCTYPE svg PUBLIC "-//W3C//DTD SVG 20010904//EN"
 "http://www.w3.org/TR/2001/REC-SVG-20010904/DTD/svg10.dtd">
<svg version="1.0" xmlns="http://www.w3.org/2000/svg"
 width="1024.000000pt" height="1024.000000pt" viewBox="0 0 1024.000000 1024.000000"
 preserveAspectRatio="xMidYMid meet">
<metadata>
Created by potrace 1.14, written by Peter Selinger 2001-2017
</metadata>
<g transform="translate(0.000000,1024.000000) scale(0.100000,-0.100000)"
fill="#000000" stroke="none">
<path d="M0 7514 c0 -2587 1 -2726 18 -2713 13 11 13 9 -2 -9 -14 -17 -16 -22
-5 -22 11 0 11 -2 1 -8 -16 -11 -13 -4398 3 -4395 6 1 42 14 80 29 39 14 83
28 99 31 16 3 41 10 55 15 14 6 37 13 51 15 13 2 30 9 36 14 7 5 16 9 20 8 5
-1 16 1 24 4 8 4 44 13 80 21 36 8 97 24 135 36 39 12 78 23 88 25 22 5 78 23
137 43 25 9 47 17 50 17 3 1 25 5 50 9 25 5 50 12 55 16 6 4 21 10 35 13 14 3
43 12 65 20 79 30 303 84 375 92 14 1 36 5 50 8 40 10 132 19 165 17 17 -2 49
-3 72 -4 22 -1 39 -5 36 -10 -3 -5 0 -6 8 -4 8 3 26 -1 40 -8 15 -7 29 -11 32
-8 3 3 14 1 24 -4 10 -6 35 -13 57 -16 21 -4 42 -9 47 -12 5 -3 17 -7 28 -9
10 -2 55 -15 100 -29 45 -14 87 -26 94 -26 7 0 48 -12 92 -26 44 -14 92 -27
108 -29 15 -2 33 -7 39 -11 6 -4 21 -8 32 -10 38 -6 51 -9 64 -18 7 -4 16 -5
19 -2 3 3 11 2 17 -3 6 -5 38 -16 71 -25 33 -9 66 -19 73 -21 7 -3 14 -3 16
-2 1 1 9 -3 17 -9 8 -6 22 -10 32 -9 9 2 17 0 17 -4 0 -4 22 -13 48 -20 26 -6
61 -18 76 -26 15 -8 32 -12 37 -9 5 3 9 1 9 -4 0 -5 6 -9 13 -10 15 -1 95 -29
124 -43 11 -6 27 -8 34 -4 8 5 10 4 5 -3 -4 -7 -1 -12 6 -12 7 0 26 -7 42 -15
15 -8 32 -13 37 -10 4 3 13 -4 20 -16 9 -17 13 -19 20 -8 6 11 9 10 15 -4 3
-10 14 -16 23 -15 9 2 15 -2 14 -9 -2 -7 4 -10 12 -7 8 4 15 2 15 -3 0 -5 6
-10 13 -10 29 -2 92 -16 97 -22 5 -6 35 -9 128 -11 28 -1 52 -6 52 -11 0 -6 4
-8 8 -5 5 3 31 -1 58 -8 27 -8 85 -22 129 -32 44 -10 83 -24 87 -30 4 -6 20
-9 34 -6 19 3 25 1 20 -7 -4 -6 0 -11 11 -12 18 -1 34 -4 43 -8 3 -1 18 -4 34
-6 16 -2 33 -10 37 -17 7 -10 9 -10 9 1 0 10 6 10 26 -4 15 -9 23 -12 19 -5
-4 7 4 4 19 -5 15 -10 29 -15 33 -12 3 4 13 2 23 -3 10 -5 39 -11 65 -14 26
-2 52 -10 56 -18 7 -10 9 -10 9 2 0 12 2 13 9 1 5 -7 14 -11 20 -7 6 4 20 2
31 -4 12 -6 35 -12 51 -12 16 -1 32 -5 35 -9 3 -5 400 -8 882 -8 905 1 896 0
747 33 -71 15 -129 33 -191 57 -40 16 -104 36 -144 44 -40 8 -143 36 -229 61
-86 25 -216 61 -290 80 -74 18 -175 49 -225 68 -50 19 -114 39 -143 45 -28 6
-89 26 -136 45 -112 47 -163 63 -219 71 -39 6 -49 4 -67 -14 -12 -12 -21 -27
-21 -35 0 -7 -14 -19 -30 -26 -41 -17 -78 -1 -75 32 3 36 -15 77 -36 83 -10 4
-19 10 -19 14 0 14 -111 62 -173 75 -7 2 -19 6 -27 9 -8 4 -61 18 -118 32 -57
14 -124 33 -150 42 -26 8 -51 16 -57 18 -5 1 -28 7 -50 13 -22 6 -53 14 -70
16 -94 17 -147 31 -210 56 -11 4 -40 13 -65 19 -25 7 -67 19 -94 27 -27 9 -64
18 -83 20 -19 2 -45 11 -58 20 -13 9 -41 17 -62 19 -21 2 -40 4 -43 5 -3 1 -9
2 -14 1 -4 -1 -14 3 -21 9 -7 6 -23 13 -36 15 -12 3 -25 8 -28 12 -3 5 -17 8
-31 8 -14 -1 -35 5 -47 12 -12 7 -30 14 -40 16 -10 1 -24 6 -30 10 -8 5 -13 3
-13 -4 0 -8 -5 -6 -13 4 -8 12 -27 18 -59 19 -26 0 -45 4 -43 8 3 4 -12 11
-33 15 -20 4 -41 10 -47 13 -5 4 -14 7 -20 8 -43 8 -63 13 -85 22 -14 5 -50
17 -80 27 -30 10 -60 22 -66 26 -6 5 -15 4 -21 -2 -8 -8 -14 -5 -23 10 -6 12
-15 19 -21 16 -5 -4 -9 -1 -9 4 0 6 -3 10 -7 9 -5 -2 -24 3 -43 11 -135 51
-218 84 -234 92 -10 6 -28 12 -39 15 -11 2 -24 9 -29 16 -6 10 -8 10 -8 0 0
-10 -4 -10 -22 0 -13 7 -26 17 -30 23 -4 5 -20 11 -35 12 -15 1 -29 7 -31 13
-2 5 -8 8 -13 4 -5 -3 -9 -1 -9 5 0 6 -7 7 -17 4 -10 -4 -14 -2 -10 4 4 6 -1
10 -11 9 -9 0 -16 5 -14 12 1 8 -2 11 -8 7 -5 -3 -10 -1 -10 5 0 7 -7 10 -15
7 -8 -4 -22 4 -34 18 -10 14 -24 25 -29 25 -6 0 -14 4 -17 10 -3 6 1 7 9 4 9
-4 16 -1 16 6 0 12 10 12 130 -6 14 -2 42 -7 63 -13 20 -5 46 -7 57 -4 11 3
20 1 20 -4 0 -6 10 -9 23 -9 12 1 33 -2 46 -6 14 -5 54 -11 90 -14 36 -3 69
-10 73 -17 6 -9 8 -9 8 1 0 6 7 12 16 12 8 0 13 -4 10 -9 -4 -5 7 -7 24 -5 16
3 30 1 30 -3 0 -5 20 -8 45 -7 25 1 45 -1 45 -5 0 -4 18 -7 41 -8 22 -1 48 -8
57 -15 13 -11 14 -11 7 1 -6 11 -4 13 11 7 10 -5 34 -12 52 -18 17 -5 32 -14
32 -21 0 -8 3 -8 9 2 6 9 16 11 32 5 13 -4 26 -9 29 -9 22 -5 106 -30 157 -47
34 -11 64 -18 66 -16 2 2 11 -3 20 -10 9 -8 21 -11 26 -8 5 4 13 1 16 -5 4 -5
14 -8 22 -5 8 3 12 2 9 -3 -5 -7 26 -17 72 -23 6 -1 12 -5 12 -8 0 -7 41 -20
80 -25 8 -2 44 -14 80 -28 36 -14 133 -44 215 -67 83 -23 164 -47 180 -55 17
-7 46 -15 66 -18 20 -2 42 -8 48 -11 6 -4 24 -9 39 -12 15 -3 34 -7 42 -11 8
-3 17 -7 20 -8 3 -1 17 -7 31 -12 14 -6 41 -14 60 -18 33 -6 59 -12 69 -15 3
-1 8 -2 13 -1 4 0 7 -3 7 -9 0 -5 6 -7 14 -4 7 3 40 -4 72 -15 67 -22 165 -46
177 -43 4 1 7 -2 7 -8 0 -5 6 -7 13 -4 7 2 29 -2 49 -10 20 -9 45 -13 57 -11
11 2 21 -1 21 -6 0 -6 4 -7 10 -4 5 3 19 1 30 -5 12 -6 43 -13 71 -15 27 -2
53 -6 58 -9 4 -3 43 -6 85 -7 42 -1 76 -6 76 -11 0 -5 9 -4 20 2 11 6 20 7 20
2 0 -5 11 -7 25 -4 14 2 22 8 19 13 -2 5 6 11 18 14 13 3 34 22 47 40 13 19
30 35 37 35 8 0 22 16 31 35 9 19 20 32 24 30 3 -3 12 2 19 10 7 8 21 15 32
15 10 0 16 5 13 10 -5 9 1 12 21 9 4 0 10 3 13 8 14 19 54 47 47 33 -4 -8 0
-6 8 4 9 11 16 16 16 12 0 -4 7 -1 15 6 35 31 45 38 64 41 11 2 29 11 39 20
10 9 23 17 29 17 6 0 16 7 23 15 7 8 16 12 21 9 5 -3 12 2 15 10 3 9 15 16 25
16 10 0 19 4 19 8 0 5 18 18 40 31 42 24 54 47 19 38 -15 -4 -19 -2 -15 8 3 8
0 17 -6 21 -7 4 -8 3 -4 -4 5 -8 0 -12 -13 -12 -11 0 -23 5 -26 11 -4 6 -19 9
-33 8 -15 -2 -33 0 -40 4 -6 5 -12 6 -12 3 0 -2 -26 2 -57 10 -32 8 -80 19
-108 24 -27 6 -70 14 -95 20 -25 5 -62 12 -83 15 -21 3 -50 10 -64 16 -14 5
-28 7 -31 4 -3 -2 -10 -1 -16 4 -6 6 -31 12 -54 15 -23 3 -47 8 -52 11 -6 4
-23 8 -38 11 -15 2 -38 7 -52 11 -14 3 -32 7 -40 8 -8 1 -28 7 -43 13 -16 7
-32 12 -36 12 -5 0 -37 9 -72 21 -35 11 -72 21 -81 22 -10 1 -18 4 -18 7 0 4
-6 7 -12 8 -7 0 -65 15 -128 31 -63 17 -122 33 -131 35 -9 3 -41 15 -70 27
-59 25 -96 60 -105 99 -3 14 -8 32 -11 40 -4 8 -7 18 -8 23 -2 4 -4 10 -5 15
-1 4 -2 10 -2 13 1 4 -20 12 -46 19 -26 7 -74 20 -107 30 -33 10 -98 26 -145
35 -128 25 -310 65 -352 77 -46 13 -86 71 -67 94 7 8 14 13 16 10 7 -6 67 20
107 47 19 13 90 39 158 57 68 18 140 41 160 51 21 10 44 19 52 19 8 0 53 15
100 33 l85 33 107 -13 c59 -7 114 -15 123 -17 9 -3 48 -8 86 -11 154 -14 443
-46 490 -55 28 -5 66 -11 85 -14 19 -3 94 -17 165 -30 233 -45 480 -57 620
-30 99 20 117 16 110 -23 -5 -27 0 -31 132 -105 146 -81 426 -223 656 -333
l137 -65 103 0 c113 0 147 -11 161 -52 16 -45 -19 -80 -121 -118 -48 -18 -119
-46 -158 -63 -92 -38 -459 -178 -750 -285 -60 -22 -158 -61 -216 -85 -58 -25
-121 -48 -140 -52 -19 -3 -79 -21 -134 -40 -55 -18 -107 -33 -115 -34 -44 -2
-131 -20 -160 -34 -32 -14 -80 -57 -80 -71 0 -6 5 -4 11 4 9 12 10 10 6 -8 -4
-18 -2 -22 9 -18 9 4 14 -1 14 -15 0 -11 6 -19 13 -18 6 1 28 -5 48 -14 20 -9
70 -18 112 -21 41 -3 117 -12 168 -20 100 -17 149 -17 150 -1 0 6 6 16 12 24
9 12 9 13 0 7 -9 -5 -11 -2 -7 8 3 9 10 16 15 16 5 0 9 7 9 17 0 9 3 14 6 10
3 -3 15 2 25 12 45 42 166 52 201 17 7 -7 19 -11 26 -8 17 5 64 -26 57 -38 -4
-6 -1 -10 4 -10 7 0 7 -7 -1 -20 -7 -11 -19 -20 -26 -20 -7 0 -11 -4 -8 -9 6
-8 -40 -26 -57 -22 -5 1 -6 -3 -3 -8 3 -5 -1 -14 -9 -21 -14 -11 -14 -15 2
-33 24 -26 41 -32 218 -78 83 -21 177 -47 210 -57 41 -13 79 -17 118 -14 98 7
164 -6 202 -39 44 -39 153 -74 290 -95 61 -9 121 -22 135 -29 24 -12 146 -38
305 -65 39 -6 85 -16 104 -22 37 -11 109 -78 85 -78 -9 0 -13 -4 -10 -9 4 -5
0 -12 -6 -14 -9 -4 -8 -6 2 -6 9 -1 17 -11 17 -23 2 -16 0 -19 -6 -9 -11 17
-32 5 -24 -14 3 -9 -1 -15 -10 -15 -8 0 -17 -7 -21 -15 -5 -14 88 -15 834 -15
462 0 840 4 840 9 0 5 15 14 33 21 17 8 39 20 48 27 9 8 26 15 38 16 11 1 21
5 21 10 0 4 4 6 9 3 5 -3 20 3 33 14 14 10 37 21 52 24 14 3 33 12 42 20 8 9
20 16 26 16 5 0 53 21 106 47 54 26 100 46 105 45 4 -1 7 3 7 9 0 5 5 7 10 4
6 -3 10 -1 10 4 0 6 11 11 24 11 13 0 26 4 28 10 2 5 12 11 23 13 26 5 61 18
135 50 19 9 55 23 80 33 25 9 50 21 57 26 7 6 17 7 23 3 5 -3 10 -1 10 5 0 6
4 9 9 6 4 -3 21 6 37 19 16 14 36 25 44 25 8 0 28 9 44 19 17 11 33 18 38 15
4 -3 8 1 8 9 0 7 6 14 13 15 49 6 60 10 68 23 5 8 9 10 9 5 0 -5 9 -1 20 9 11
10 34 18 51 18 l30 0 -2 349 -1 349 -23 -21 c-15 -14 -22 -30 -19 -45 3 -19 1
-22 -23 -17 -25 5 -25 6 -8 13 19 7 19 8 -2 8 -12 1 -25 6 -29 13 -5 7 -2 8 7
3 12 -7 12 -5 1 6 -11 12 -14 12 -22 -1 -6 -9 -6 -16 0 -18 5 -2 7 -9 4 -17
-3 -7 -1 -16 5 -20 7 -4 8 0 4 11 -6 15 -4 15 20 -1 23 -14 29 -35 11 -35 -3
0 -2 4 1 10 3 5 1 10 -4 10 -6 0 -11 -5 -11 -12 0 -6 -13 1 -30 17 -16 16 -33
25 -37 22 -3 -4 -1 -7 5 -7 7 0 12 -4 12 -10 0 -5 -7 -7 -15 -4 -19 8 -9 -25
13 -44 13 -10 13 -12 1 -12 -20 0 -34 12 -34 29 0 8 -6 16 -12 18 -7 3 -13 0
-13 -7 0 -6 5 -8 12 -4 7 5 8 3 4 -5 -5 -7 -14 -10 -22 -7 -8 3 -11 0 -7 -9 3
-8 10 -12 15 -9 6 4 4 -4 -3 -17 -7 -13 -11 -25 -10 -27 2 -2 -1 -7 -5 -10 -4
-4 -4 -1 0 6 4 7 1 12 -8 12 -9 0 -16 5 -16 10 0 6 -5 10 -11 10 -5 0 -7 -6
-4 -12 4 -7 -7 3 -24 22 -17 19 -31 29 -31 23 0 -7 5 -15 10 -18 6 -3 10 -15
10 -26 0 -10 -4 -19 -10 -19 -5 0 -10 -7 -10 -15 0 -20 -14 -19 -31 3 -13 16
-12 16 4 3 17 -14 18 -13 15 5 -2 13 2 18 12 16 12 -3 13 -1 2 10 -11 11 -14
10 -21 -1 -5 -8 -16 -11 -30 -6 -11 3 -29 1 -38 -5 -16 -9 -16 -10 4 -8 12 2
22 -1 22 -7 1 -10 -39 -12 -69 -4 -8 2 -15 0 -15 -6 -2 -10 -14 -43 -23 -59
-3 -5 0 -6 6 -2 8 5 10 1 5 -10 -4 -11 -3 -15 5 -10 6 3 13 2 17 -4 3 -5 -1
-10 -10 -10 -8 0 -18 7 -21 15 -4 8 -12 15 -18 15 -16 0 -17 -30 -2 -50 9 -13
9 -13 -5 -2 -17 13 -23 62 -8 62 5 0 9 5 9 12 0 9 -3 9 -12 0 -16 -16 -29 -15
-22 1 3 8 -3 20 -13 28 -16 13 -17 12 -5 -3 8 -9 11 -22 7 -29 -4 -6 -1 -15 6
-20 11 -7 11 -9 1 -9 -7 0 -10 -5 -7 -10 5 -7 -7 -9 -34 -6 -40 5 -47 -1 -42
-36 0 -4 -7 -4 -16 -1 -10 4 -14 2 -10 -4 4 -5 0 -19 -8 -29 -13 -16 -14 -17
-9 -2 4 13 1 18 -11 18 -11 0 -15 -7 -13 -22 2 -12 -3 -23 -12 -25 -13 -4 -13
-3 0 6 13 9 11 12 -8 17 -18 5 -20 9 -10 15 11 7 10 10 -1 21 -8 7 -11 9 -9 3
3 -5 0 -16 -8 -23 -8 -7 -14 -8 -14 -3 0 6 -8 8 -17 5 -15 -5 -15 -4 -3 4 8 6
18 8 23 5 5 -3 8 0 5 7 -2 7 -12 14 -21 16 -9 1 -15 -2 -12 -6 3 -5 1 -12 -5
-15 -8 -5 -8 -11 0 -20 15 -18 4 -36 -17 -28 -12 5 -14 3 -8 -7 6 -10 4 -12
-10 -6 -11 4 -26 0 -39 -11 -21 -18 -21 -18 -2 4 15 19 16 25 6 38 -17 21 -33
19 -21 -2 7 -14 3 -24 -19 -45 -25 -23 -36 -27 -75 -24 -25 2 -45 -1 -45 -6 0
-5 4 -7 9 -3 5 3 12 1 15 -4 3 -5 0 -11 -8 -14 -8 -3 -17 1 -20 9 -3 8 -13 14
-23 14 -13 0 -9 5 11 15 15 8 32 12 38 9 5 -3 4 4 -4 15 -11 18 -14 19 -16 6
-2 -9 -14 -20 -26 -25 -13 -4 -23 -16 -23 -25 0 -9 6 -14 14 -11 15 6 32 -23
25 -43 -3 -9 0 -11 8 -6 8 5 11 4 6 -3 -4 -6 -14 -8 -22 -5 -10 4 -12 9 -5 16
11 11 3 39 -10 31 -5 -3 -6 -11 -2 -17 3 -7 -4 -3 -17 8 -13 11 -21 15 -17 10
3 -6 2 -17 -4 -25 -7 -12 -9 -10 -9 8 0 25 -21 29 -39 8 -7 -8 -20 -12 -29 -9
-12 3 -18 -2 -19 -16 -1 -13 3 -18 13 -14 7 3 12 9 9 13 -6 10 21 7 31 -3 4
-4 0 -7 -10 -7 -9 0 -15 -4 -12 -9 3 -4 -9 -7 -28 -6 -33 3 -41 -12 -22 -43 4
-7 5 -16 2 -19 -3 -4 -6 -1 -6 6 0 7 -4 10 -9 6 -6 -3 -8 5 -6 17 3 15 -5 34
-21 53 -24 29 -24 29 -8 3 15 -26 15 -28 -2 -34 -11 -4 -23 -9 -28 -12 -5 -3
-6 0 -2 6 4 7 1 12 -8 12 -9 0 -15 5 -13 12 1 6 -6 13 -16 14 -13 1 -13 1 -2
-3 12 -4 13 -8 5 -18 -13 -16 -43 -8 -33 8 3 6 1 7 -5 3 -20 -12 -13 -24 19
-35 28 -9 30 -9 24 7 -5 14 -3 13 13 -3 13 -14 15 -23 8 -32 -9 -9 -14 -9 -22
3 -18 23 -54 18 -55 -8 0 -13 -3 -17 -6 -10 -6 14 -33 16 -33 2 0 -5 -18 -10
-39 -10 -25 0 -41 -5 -45 -15 -3 -8 0 -15 6 -15 6 0 9 -2 6 -5 -10 -10 -38 7
-39 24 0 9 -6 3 -14 -14 -10 -22 -10 -32 -2 -37 7 -4 3 -6 -9 -6 -16 2 -20 7
-16 23 3 11 1 17 -3 13 -4 -4 -16 -3 -27 3 -25 14 -35 4 -15 -15 8 -8 17 -12
21 -9 3 4 6 1 6 -5 0 -6 -9 -10 -19 -9 -11 0 -18 4 -15 8 9 15 -14 18 -26 4
-13 -16 -34 -10 -24 7 4 6 -1 6 -14 -1 -25 -13 -38 -31 -23 -31 6 0 11 5 11
10 0 6 4 10 10 10 14 0 -10 -48 -28 -55 -13 -5 -13 -3 -1 12 11 15 11 16 -1 6
-19 -18 -27 -16 -33 7 -3 13 0 20 8 20 23 0 28 21 11 38 -10 11 -16 12 -16 4
0 -7 5 -12 10 -12 18 0 10 -18 -10 -23 -22 -6 -19 -28 7 -59 10 -11 11 -18 3
-23 -6 -4 -15 6 -21 23 -6 17 -17 33 -26 36 -13 5 -14 4 -3 -9 7 -8 8 -15 2
-15 -5 0 -16 10 -24 22 -11 17 -16 19 -23 8 -5 -9 -4 -11 3 -6 7 4 12 3 12 -2
0 -10 -24 -22 -43 -22 -7 0 -6 4 3 10 8 5 10 10 4 10 -18 0 -37 -28 -30 -45
10 -27 -23 -16 -39 13 -12 20 -15 22 -13 7 3 -18 -3 -20 -47 -20 -38 0 -49 -3
-47 -14 3 -12 0 -12 -13 -1 -13 11 -14 10 -8 -5 5 -15 3 -17 -11 -12 -13 5
-17 3 -13 -6 3 -7 -3 -13 -13 -13 -11 0 -17 6 -15 16 1 8 -4 22 -13 30 -14 13
-15 12 -9 -3 3 -9 2 -19 -3 -22 -6 -4 -10 -13 -10 -21 0 -9 5 -12 12 -8 7 5 8
3 3 -6 -6 -10 -3 -12 12 -8 12 3 27 2 34 -3 10 -6 9 -8 -6 -8 -11 0 -33 -2
-48 -5 -27 -4 -28 -3 -23 27 l6 32 -14 -29 c-8 -19 -16 -25 -20 -17 -4 7 -2
18 4 26 9 11 9 15 1 15 -6 0 -14 -7 -17 -15 -4 -8 -14 -15 -23 -15 -14 0 -14
2 -1 10 13 8 13 10 -1 10 -9 0 -19 -9 -22 -21 -4 -16 -2 -19 11 -14 14 5 13 3
-2 -12 -21 -19 -76 -27 -76 -10 0 6 -4 6 -12 -1 -7 -5 -24 -8 -37 -6 -17 3
-22 0 -17 -11 3 -8 1 -15 -3 -15 -5 0 -12 6 -14 13 -3 6 -6 2 -6 -9 -1 -12 -9
-28 -18 -35 -10 -8 -14 -9 -10 -2 4 6 3 14 -2 17 -5 4 -11 -2 -13 -13 -3 -19
-4 -19 -28 1 -24 20 -24 20 -3 14 17 -5 23 -3 23 8 0 8 -4 18 -10 21 -5 3 -7
0 -4 -8 4 -11 -6 -13 -41 -12 -26 0 -49 -3 -52 -9 -3 -5 -1 -6 5 -2 6 3 13 -3
17 -14 3 -11 13 -20 22 -20 9 0 13 6 9 15 -5 15 5 20 17 8 11 -10 -13 -33 -35
-33 -10 0 -21 7 -24 15 -5 12 -10 13 -20 4 -8 -6 -14 -7 -14 -2 0 5 -9 9 -21
9 -17 0 -18 -2 -6 -11 12 -8 10 -13 -11 -29 -22 -17 -25 -17 -19 -3 3 9 2 17
-3 17 -5 0 -8 -13 -8 -29 l1 -29 22 24 c12 13 26 24 31 24 4 0 -5 -14 -21 -30
-34 -36 -41 -37 -67 -7 -11 12 -16 16 -12 8 3 -7 0 -18 -7 -23 -11 -8 -10 -9
3 -4 15 4 16 2 6 -19 -6 -14 -16 -25 -21 -25 -5 0 -3 8 4 17 12 15 12 16 -3
10 -9 -3 -18 -1 -20 5 -2 6 -9 4 -16 -5 -10 -12 -10 -17 -1 -23 8 -5 9 -3 4 6
-5 8 -4 11 3 6 15 -9 4 -36 -14 -36 -8 0 -13 3 -13 7 4 22 -3 29 -23 28 -16
-1 -22 -7 -20 -20 2 -11 -1 -15 -10 -12 -7 2 -12 10 -10 16 1 6 -6 11 -15 11
-13 0 -9 8 16 34 24 24 29 36 20 41 -8 6 -10 4 -4 -5 6 -9 4 -11 -4 -5 -9 5
-6 14 10 32 20 20 21 25 9 33 -13 8 -12 10 3 10 9 0 17 5 17 11 0 5 4 8 9 5 5
-4 7 3 4 14 -3 12 1 22 11 26 9 3 13 10 10 15 -3 5 2 9 10 9 9 0 13 7 11 18
-4 24 20 56 36 46 7 -4 10 -3 5 4 -3 6 -1 23 6 39 6 15 12 31 12 35 1 3 13 20
29 37 15 17 22 31 16 31 -7 0 -5 9 5 22 21 30 45 84 51 116 2 14 10 29 17 33
6 4 13 20 16 36 2 15 6 30 10 33 11 8 52 91 52 105 0 7 7 18 15 25 8 7 13 16
10 20 -3 4 5 20 17 36 12 15 24 37 25 48 2 10 8 25 14 33 6 7 8 13 3 13 -5 0
-3 4 4 9 7 4 15 14 16 22 2 8 8 26 14 40 13 34 10 132 -5 150 -6 8 -13 21 -15
29 -2 8 -11 21 -22 29 -14 11 -15 15 -5 22 11 7 10 9 -4 9 -10 0 -16 4 -12 9
6 11 -50 73 -58 64 -10 -10 -36 54 -41 103 -3 27 -1 67 5 89 5 22 12 54 15 70
3 17 7 31 9 33 8 9 77 -46 87 -71 7 -15 16 -27 20 -27 5 0 8 -8 8 -19 0 -10
14 -61 31 -112 30 -93 63 -142 100 -152 21 -6 44 17 34 33 -3 5 -1 10 4 10 6
0 11 4 11 10 0 5 13 32 30 60 16 27 26 50 22 50 -4 0 -2 4 3 8 6 4 17 27 24
52 7 25 28 76 47 113 19 37 31 73 28 79 -4 7 -2 8 5 4 7 -5 13 3 17 23 4 17
10 29 14 26 7 -4 25 63 20 74 -1 2 4 7 11 12 7 4 18 25 25 47 10 35 9 46 -9
86 -11 25 -23 46 -28 46 -5 0 -9 6 -9 13 0 17 -37 50 -72 65 -15 6 -45 27 -66
47 -22 19 -47 35 -57 35 -9 0 -38 19 -64 43 -32 28 -71 50 -117 66 -88 31
-144 59 -144 72 0 5 -9 20 -20 32 -12 12 -23 33 -26 47 -12 57 -20 65 -105 93
-46 16 -174 70 -284 121 -110 52 -208 96 -217 99 -10 4 -88 47 -173 97 -86 49
-159 90 -162 90 -3 0 -19 6 -36 14 -18 8 -58 24 -89 35 -32 11 -76 32 -97 46
-22 13 -50 26 -63 29 -13 2 -52 13 -88 24 -78 24 -114 32 -159 38 -19 3 -38 7
-42 10 -5 3 -23 7 -41 9 -41 6 -52 8 -163 34 -49 12 -107 31 -128 42 -25 14
-47 18 -65 14 -28 -6 -28 -8 -24 -59 5 -63 -34 -175 -79 -220 -52 -54 -178
-47 -269 14 -251 168 -287 196 -305 231 -26 48 -12 79 76 166 77 78 80 83 86
136 7 66 23 58 -172 82 -71 9 -157 21 -190 26 -33 5 -76 12 -95 14 -19 3 -64
9 -100 15 -36 5 -85 12 -110 15 -25 3 -100 12 -167 21 -121 15 -316 16 -341 0
-10 -6 -8 -15 8 -40 24 -40 25 -57 5 -96 -19 -37 -60 -50 -162 -51 -96 -1
-121 10 -181 80 -23 28 -68 67 -100 88 -80 53 -198 173 -181 183 7 5 20 28 28
51 15 40 21 45 81 67 36 13 76 30 90 38 14 8 50 27 80 41 30 13 79 36 108 50
110 52 172 41 289 -47 56 -42 91 -61 122 -66 52 -8 81 -47 81 -110 0 -49 11
-59 65 -63 22 -1 101 -9 175 -17 74 -8 185 -19 245 -25 61 -5 187 -21 280 -36
94 -14 185 -28 203 -30 21 -3 41 1 58 12 21 14 39 16 88 11 54 -6 65 -4 96 18
34 23 36 24 55 6 11 -10 33 -20 49 -22 15 -3 51 -24 80 -49 107 -93 144 -134
157 -177 11 -39 10 -48 -13 -107 -17 -43 -23 -67 -16 -71 6 -4 38 -13 72 -20
34 -6 108 -22 166 -34 58 -12 112 -23 120 -25 8 -1 22 -5 30 -8 18 -7 204 -45
240 -49 14 -1 39 7 56 19 50 35 116 57 174 58 103 0 231 -83 246 -160 5 -31
18 -44 78 -86 39 -27 86 -64 105 -81 19 -17 60 -42 90 -55 68 -30 97 -45 226
-113 125 -65 161 -87 206 -122 32 -26 45 -29 134 -34 140 -8 272 -64 367 -156
57 -55 75 -84 98 -155 11 -35 19 -45 44 -51 62 -17 103 -4 156 51 28 28 50 56
50 63 0 6 6 16 13 22 7 6 14 31 15 55 3 51 -3 57 -130 141 -48 32 -110 78
-138 102 -28 24 -60 44 -71 44 -13 0 -30 16 -47 44 -15 25 -36 49 -47 54 -11
6 -81 39 -155 73 -317 148 -605 300 -640 338 -39 43 -77 68 -112 75 -12 3 -70
19 -128 37 -58 17 -121 35 -140 39 -36 7 -89 21 -170 45 -25 7 -112 27 -195
45 -82 18 -175 43 -206 56 -31 13 -63 24 -71 24 -9 0 -35 7 -59 16 -24 9 -48
17 -54 18 -5 2 -48 21 -95 44 -47 22 -107 50 -133 61 -43 18 -48 23 -41 43 4
13 6 32 4 43 -11 62 -3 133 18 162 12 17 22 36 22 43 0 6 -55 69 -122 139 -68
70 -136 147 -153 172 -16 24 -49 69 -72 99 -24 30 -43 59 -43 63 0 4 -18 32
-40 62 -22 30 -40 57 -40 60 0 3 -9 15 -19 27 -16 17 -18 24 -8 39 27 43 59
16 223 -191 55 -69 133 -167 174 -217 40 -51 77 -93 81 -93 4 0 21 -19 38 -42
16 -24 56 -70 88 -104 54 -56 63 -61 133 -77 135 -31 200 -87 200 -172 0 -25
6 -48 15 -55 7 -6 68 -24 134 -39 67 -16 126 -33 133 -38 7 -6 49 -18 93 -28
44 -9 91 -24 105 -33 14 -9 52 -24 85 -33 33 -10 119 -38 190 -63 159 -54 197
-60 228 -36 47 37 76 30 152 -37 234 -210 224 -204 546 -371 98 -52 161 -77
223 -92 47 -11 102 -26 121 -34 19 -8 45 -13 56 -11 16 3 39 -12 88 -61 68
-68 115 -99 131 -89 13 8 13 43 0 58 -6 7 -28 32 -50 57 -22 25 -40 48 -40 52
0 6 -55 76 -94 118 -7 8 -17 25 -20 37 -4 12 -20 33 -35 46 -16 13 -32 34 -36
46 -7 24 11 91 26 91 5 0 9 9 9 20 0 14 7 20 23 20 24 0 30 -8 176 -237 29
-45 62 -85 72 -88 10 -4 19 -15 19 -26 0 -28 26 -23 48 8 20 29 37 72 34 86
-1 4 5 10 13 13 8 4 15 15 15 25 0 10 4 19 9 19 5 0 13 10 17 23 4 12 17 45
29 72 12 28 26 64 29 80 l8 30 -36 -40 c-19 -22 -38 -48 -41 -57 -4 -10 -10
-18 -16 -18 -8 0 6 41 50 143 12 27 21 55 21 63 0 8 5 14 10 14 17 0 0 100
-25 150 -13 25 -28 60 -35 78 -7 18 -16 35 -20 37 -9 6 10 -62 33 -115 14 -32
9 -80 -8 -80 -4 0 -4 4 -1 9 3 5 -3 11 -14 14 -11 3 -25 19 -31 36 -6 17 -15
31 -20 31 -5 0 -9 6 -9 14 0 7 -9 25 -20 38 -36 47 -170 315 -170 341 0 19 5
27 18 27 9 0 26 7 36 15 32 24 77 19 103 -12 13 -14 23 -32 23 -40 0 -7 4 -13
9 -13 4 0 21 -18 35 -41 37 -55 43 -43 12 25 -33 72 -40 102 -27 110 6 4 11
23 11 41 0 52 -20 58 -197 56 -134 -2 -156 1 -171 15 -16 17 -17 17 -20 -3 -3
-17 -14 -23 -64 -32 -72 -13 -84 -8 -178 75 -71 62 -142 100 -207 110 -33 5
-50 1 -83 -17 -36 -20 -43 -21 -50 -9 -5 8 -22 30 -39 49 -17 19 -31 44 -31
56 0 22 1 22 54 10 30 -7 60 -16 66 -20 8 -5 11 -3 8 6 -2 8 -23 23 -46 34
-23 10 -44 26 -47 33 -13 35 50 62 147 62 31 0 60 4 63 10 3 5 1 10 -4 10 -6
0 -11 7 -11 15 0 8 -5 15 -11 15 -6 0 -23 8 -37 19 -42 28 -146 61 -154 48 -4
-6 -28 -13 -55 -16 -47 -6 -48 -7 -84 -74 -22 -42 -48 -76 -67 -89 -18 -11
-32 -26 -32 -33 0 -15 -35 -26 -56 -18 -17 6 -19 33 -2 33 38 0 -36 33 -177
79 -112 36 -168 60 -187 78 -20 19 -28 22 -28 11 0 -21 -32 -48 -58 -48 -42 0
-43 76 -2 97 20 10 29 10 47 -2 21 -14 22 -13 37 39 14 47 14 57 2 82 -13 25
-13 30 5 52 24 31 24 49 -1 62 -11 6 -35 34 -53 63 -19 29 -75 91 -125 139
-50 48 -93 96 -97 108 -7 23 7 27 25 5 7 -8 17 -15 23 -15 6 0 1 10 -11 23
-30 32 -28 44 11 52 17 3 62 14 99 23 62 15 70 15 101 0 19 -9 56 -42 83 -73
81 -94 95 -99 268 -105 144 -5 149 -6 165 -30 9 -13 35 -45 58 -70 24 -25 52
-64 63 -87 12 -23 28 -47 36 -55 15 -12 113 -65 196 -105 21 -10 38 -24 38
-30 0 -7 11 -15 23 -18 28 -7 92 25 92 46 0 8 8 22 18 32 27 27 60 14 103 -41
50 -63 174 -182 191 -182 16 0 17 16 2 26 -7 4 -9 21 -5 45 4 26 0 53 -14 89
-11 27 -17 50 -13 50 3 0 -1 8 -10 18 -8 9 -19 29 -22 45 -4 15 -11 27 -15 27
-5 0 -11 24 -15 52 -4 29 -17 71 -28 93 -12 22 -21 47 -21 55 0 8 -4 17 -8 20
-4 3 -9 15 -11 25 -1 11 -5 25 -9 30 -5 9 -12 37 -23 94 -2 13 -15 40 -28 60
-13 20 -31 53 -41 74 -9 20 -21 35 -27 32 -8 -6 -13 8 -10 28 0 4 -3 7 -8 7
-5 0 -13 9 -16 20 -4 11 -9 18 -13 16 -4 -2 -13 2 -20 10 -7 8 -9 14 -5 14 4
0 4 4 -2 8 -5 4 -17 21 -26 37 -9 17 -21 29 -28 27 -7 -1 -10 1 -8 5 3 5 -3
26 -14 47 -10 21 -16 42 -14 46 6 9 -20 62 -26 55 -2 -2 -12 10 -21 26 -10 17
-13 27 -8 24 6 -3 10 -1 10 4 0 6 -4 11 -9 11 -5 0 -12 11 -15 25 -4 14 -11
23 -16 20 -9 -5 -14 9 -7 18 1 2 -5 11 -13 20 -30 33 -45 52 -45 57 0 14 -33
49 -40 42 -5 -4 -5 -2 -2 4 12 22 -112 153 -148 156 -14 1 -25 6 -25 10 0 4
-9 8 -19 8 -11 0 -23 5 -26 10 -4 6 -15 10 -24 8 -16 -3 -92 46 -99 64 -2 5
-7 6 -11 3 -5 -2 -19 7 -31 20 -13 14 -31 25 -40 25 -9 0 -20 3 -24 7 -9 9
-29 12 -110 17 -40 2 -71 8 -76 16 -6 10 -9 9 -13 -1 -3 -8 -4 2 -2 21 4 53 5
54 11 47 3 -3 14 2 23 11 10 10 32 28 49 42 22 17 28 27 19 32 -8 5 -8 8 -1 8
17 0 11 59 -11 103 -11 22 -26 37 -37 37 -10 0 -18 7 -18 16 0 10 -6 14 -14
11 -8 -3 -20 1 -27 9 -7 9 -21 13 -30 11 -10 -3 -19 -1 -21 5 -3 8 -25 15 -56
17 -7 1 -11 4 -8 9 7 11 -122 6 -137 -6 -13 -11 -107 -13 -107 -2 0 4 -6 7
-12 8 -49 7 -349 -4 -370 -13 -11 -4 -18 -3 -18 4 0 19 -30 12 -31 -6 0 -13
-3 -11 -10 7 -6 14 -8 33 -5 43 2 9 -2 24 -10 31 -8 8 -12 20 -10 28 17 54 15
68 -10 93 -15 15 -33 24 -41 21 -11 -5 -13 -2 -9 10 5 13 0 15 -31 10 -136
-20 -163 -28 -163 -52 0 -10 -8 -26 -17 -36 -16 -18 -16 -18 0 -12 9 3 17 2
17 -3 0 -18 -12 -22 -31 -12 -22 11 -63 -6 -53 -22 3 -6 -4 -7 -21 -3 -35 9
-65 -22 -58 -59 7 -34 0 -34 -47 3 -32 25 -39 28 -55 16 -11 -8 -16 -20 -12
-30 5 -13 -1 -16 -33 -16 -35 0 -43 5 -72 45 -34 45 -69 64 -48 26 5 -11 10
-29 10 -41 0 -12 9 -35 21 -51 23 -33 22 -34 -18 -18 -15 7 -46 14 -68 16 -51
5 -105 58 -105 103 0 19 -7 33 -19 40 -27 14 -31 13 -31 -9 0 -11 -14 -31 -31
-46 -29 -23 -30 -27 -15 -38 13 -9 15 -18 8 -36 l-8 -23 -32 32 c-18 17 -32
40 -32 51 0 28 -28 35 -48 13 -9 -11 -17 -25 -18 -31 -3 -44 -4 -47 -14 -37
-5 5 -11 21 -13 34 -3 20 -11 26 -39 31 -65 10 -178 83 -178 114 0 6 -13 29
-30 51 -33 43 -37 59 -15 50 8 -3 15 -2 15 3 0 14 57 71 64 64 4 -4 4 0 1 10
-4 9 -35 35 -69 58 -33 22 -67 51 -73 64 -8 14 -43 38 -85 58 -76 36 -138 83
-138 104 0 6 -6 16 -13 20 -8 4 -27 27 -44 50 -17 23 -33 39 -37 36 -3 -3 -6
0 -6 8 0 9 -9 25 -20 37 -11 12 -20 25 -20 30 0 5 -7 15 -15 22 -9 7 -13 15
-11 18 3 2 1 13 -5 23 -7 15 -6 19 6 20 8 1 20 2 26 3 20 2 30 44 13 50 -9 3
-12 10 -9 16 3 5 -1 10 -9 10 -9 0 -16 4 -16 9 0 5 -15 15 -32 22 -30 12 -108
79 -92 79 3 0 2 6 -4 13 -6 6 -11 15 -11 20 -1 4 -1 8 -2 10 0 1 -2 11 -4 21
-10 53 -19 67 -77 117 -89 77 -161 149 -184 184 -18 29 -35 49 -81 101 -12 13
-20 24 -17 24 3 0 -14 20 -38 43 -24 24 -59 63 -79 85 -20 23 -46 42 -56 42
-15 0 -20 7 -21 29 0 18 4 29 11 27 7 -1 9 -1 4 1 -4 3 -5 9 -2 13 3 5 -8 2
-25 -6 -16 -9 -32 -19 -35 -24 -3 -5 -12 -7 -19 -4 -8 3 -17 0 -21 -6 -6 -9
-10 -9 -16 1 -6 10 -12 9 -26 -7 -10 -11 -15 -15 -10 -10 14 20 7 29 -11 13
-10 -10 -22 -14 -27 -10 -4 5 -6 1 -2 -9 8 -22 -4 -31 -17 -13 -15 21 -60 29
-52 10 7 -20 -4 -19 -18 1 -12 16 -103 20 -171 8 -16 -3 -59 -7 -95 -8 -36 -2
-121 -7 -190 -10 -69 -4 -165 -11 -213 -17 -187 -20 -235 -24 -307 -23 -113 1
-140 6 -129 25 10 19 84 41 239 69 63 12 129 25 145 31 17 5 107 20 200 34 94
15 199 31 235 36 68 11 332 15 347 6 10 -6 169 20 189 31 7 4 28 36 46 71 47
87 57 90 72 18 6 -26 8 -27 29 -12 13 9 23 27 23 43 3 41 108 470 189 764 13
48 26 116 30 151 9 79 0 88 -70 76 -44 -8 -119 -17 -380 -46 -33 -3 -79 -7
-102 -7 -24 -1 -43 -3 -43 -6 0 -3 -15 -5 -32 -6 -18 0 -132 -4 -254 -7 -121
-3 -274 -13 -340 -21 -152 -19 -313 -25 -974 -41 -233 -5 -297 2 -229 23 88
28 261 47 876 97 454 37 1002 102 1343 161 19 3 39 10 45 15 13 13 -232 9
-265 -4 -25 -10 -57 -13 -235 -22 -214 -12 -542 -20 -1020 -25 -44 -1 -89 -1
-100 -1 -112 -2 -293 6 -289 13 3 4 -1 6 -8 3 -7 -3 -31 6 -53 20 -24 14 -33
25 -23 25 23 0 34 20 17 31 -11 7 -9 9 7 9 12 0 27 7 34 15 7 9 18 14 24 12 6
-2 16 5 23 17 7 12 12 15 13 9 0 -7 5 -13 10 -13 6 0 10 21 10 46 0 43 -1 46
-23 40 -52 -13 -117 -16 -117 -7 0 7 -344 11 -1050 11 l-1050 0 0 -2726z
m3210 947 c90 -28 163 -77 200 -133 18 -26 44 -61 59 -77 24 -26 29 -42 38
-124 7 -71 15 -102 31 -122 28 -35 97 -214 112 -290 7 -33 29 -128 51 -210 23
-90 39 -173 39 -207 0 -54 -2 -59 -30 -73 -16 -8 -37 -15 -46 -15 -10 0 -40
-15 -68 -32 -39 -25 -61 -33 -96 -32 -230 4 -380 10 -380 15 0 4 -8 6 -17 5
-10 0 -17 4 -16 11 2 7 -3 10 -11 7 -20 -8 -26 20 -10 51 8 15 14 33 14 41 0
18 21 29 29 15 8 -13 41 -4 41 10 0 16 -5 24 -12 22 -4 -2 -10 8 -14 22 -3 14
-10 22 -15 19 -5 -3 -9 4 -9 16 0 12 4 18 10 15 6 -3 7 1 4 10 -6 14 -9 14
-28 -4 -12 -12 -28 -21 -35 -21 -8 0 -1 12 15 28 16 15 37 26 47 23 9 -2 17 1
17 7 0 18 -24 20 -59 6 -39 -16 -52 -18 -31 -4 11 8 12 12 3 18 -10 6 -9 16 5
45 9 20 22 36 28 37 6 0 11 10 10 23 -1 15 -8 23 -23 25 -15 2 -21 10 -20 25
0 12 5 25 10 28 12 9 17 73 6 80 -15 9 -29 298 -19 377 2 18 10 32 18 32 7 0
12 8 11 18 -3 32 1 44 13 40 7 -3 13 -20 14 -39 2 -50 32 -265 45 -329 6 -30
12 -76 12 -101 1 -51 4 -52 59 -25 49 24 67 44 47 56 -11 7 -6 12 19 21 22 7
32 17 30 28 -2 9 8 26 22 37 20 18 22 25 12 36 -9 12 -7 19 9 37 11 12 23 33
25 48 3 14 12 42 20 61 8 20 20 79 26 132 10 88 10 100 -8 135 -10 21 -26 42
-34 46 -33 16 -92 41 -132 55 -38 13 -44 13 -54 -1 -17 -23 -81 -30 -259 -30
-111 0 -159 3 -158 11 2 13 -44 6 -53 -7 -7 -13 -68 -11 -81 2 -16 16 6 54 42
68 16 7 46 19 66 28 58 24 135 32 269 28 89 -3 144 -10 190 -24z m-574 -566
c18 -27 13 -55 -9 -55 -17 0 -42 54 -32 69 10 17 23 13 41 -14z m239 -105 c3
-5 1 -18 -4 -29 -8 -14 -7 -20 4 -25 16 -6 20 -32 8 -39 -5 -2 -20 -7 -34 -11
-23 -5 -27 -2 -31 19 -3 13 -1 28 5 34 6 6 4 15 -7 26 -9 9 -14 21 -11 26 8
12 62 12 70 -1z m355 -75 c-7 -9 -15 -13 -17 -11 -7 7 7 26 19 26 6 0 6 -6 -2
-15z m-129 -388 c-10 -9 -11 -8 -5 6 3 10 9 15 12 12 3 -3 0 -11 -7 -18z
m-111 -163 c0 -2 -7 -4 -15 -4 -8 0 -15 4 -15 10 0 5 7 7 15 4 8 -4 15 -8 15
-10z m-70 -12 c-8 -3 -18 -10 -22 -16 -4 -6 -11 -7 -15 -2 -11 10 27 37 40 29
7 -4 6 -8 -3 -11z m745 -53 c-4 -5 0 -12 9 -15 8 -3 17 -13 20 -21 7 -17 -22
-131 -35 -139 -5 -3 -6 3 -3 13 5 17 4 17 -8 0 -7 -10 -21 -28 -32 -40 -10
-12 -22 -33 -27 -45 -5 -13 -18 -26 -29 -29 -11 -3 -20 -9 -20 -13 0 -4 -15
-22 -32 -39 -22 -21 -39 -30 -52 -27 -11 3 -41 -7 -68 -21 -26 -14 -50 -24
-53 -21 -3 2 1 18 7 36 7 17 9 34 5 38 -3 4 -39 -6 -79 -21 -88 -32 -95 -34
-179 -42 -75 -6 -95 6 -57 37 25 21 28 22 173 70 55 18 127 45 160 61 66 31
245 181 245 205 0 8 10 18 23 23 24 10 40 5 32 -10z m1665 -280 c0 -6 12 -20
26 -31 31 -25 19 -43 -18 -29 -32 12 -41 26 -33 51 7 21 25 28 25 9z m10 -79
c0 -5 -2 -10 -4 -10 -3 0 -8 5 -11 10 -3 6 -1 10 4 10 6 0 11 -4 11 -10z
m-2000 -378 c0 -20 10 -61 22 -92 53 -135 183 -440 209 -491 15 -31 39 -87 53
-125 13 -38 39 -105 56 -149 36 -91 90 -250 95 -280 2 -11 7 -31 10 -45 25
-107 27 -139 8 -164 -15 -21 -26 -25 -73 -25 -30 0 -80 -7 -111 -15 -55 -15
-72 -15 -181 -1 -44 5 -57 11 -61 26 -3 11 -9 19 -14 18 -4 -1 -21 -1 -36 0
-44 2 -23 17 43 31 60 13 73 23 45 34 -8 3 -15 9 -14 13 5 27 -3 43 -21 43
-16 0 -19 5 -16 25 4 20 1 25 -15 25 -13 0 -18 4 -13 12 5 7 3 8 -6 3 -7 -4
-15 -3 -19 3 -4 6 -27 13 -51 16 -25 2 -64 8 -87 12 -23 3 -50 3 -60 -1 -10
-5 -24 -7 -31 -6 -15 2 -49 -20 -50 -33 -3 -24 -62 -9 -62 15 0 8 40 24 52 21
5 -1 7 4 5 11 -1 6 -11 14 -22 18 -13 3 -19 12 -17 25 1 12 -6 23 -20 29 -19
8 -23 17 -22 52 l1 42 -49 -4 c-56 -3 -57 -4 -63 -35 -6 -30 -2 -28 -65 -30
-73 -3 -82 -2 -75 10 4 6 12 10 18 9 25 -3 38 1 32 11 -3 5 -12 7 -20 3 -9 -3
-26 2 -39 11 -20 13 -35 14 -88 5 -34 -6 -79 -17 -98 -25 -33 -14 -39 -13 -93
11 -31 15 -59 31 -62 36 -4 5 -11 9 -16 9 -6 0 -8 -3 -6 -7 3 -5 -9 -8 -26 -7
-18 0 -39 -3 -47 -7 -24 -11 -39 -2 -138 77 -15 12 -41 29 -59 38 -17 9 -34
20 -37 24 -8 13 5 52 17 52 6 0 18 6 26 14 19 16 77 50 141 81 57 29 172 60
275 75 151 22 268 64 398 142 44 26 84 48 89 48 5 0 54 44 110 98 94 91 238
283 238 317 0 7 7 16 16 19 8 3 12 11 8 17 -4 8 -3 9 4 5 7 -4 12 -24 12 -44z
m3606 -469 c65 -32 215 -168 238 -217 25 -54 21 -91 -17 -133 -30 -32 -38 -36
-88 -37 -49 0 -64 5 -130 46 -86 54 -186 147 -213 199 -19 36 -19 37 0 70 26
44 99 99 130 99 14 0 50 -12 80 -27z m-356 -158 c6 -17 5 -36 -5 -62 -7 -21
-14 -33 -15 -28 -1 6 -5 1 -10 -10 -7 -18 -9 -18 -20 10 -12 32 -7 79 11 102
17 19 28 16 39 -12z m882 -20 c21 -14 38 -29 38 -33 0 -10 73 -53 117 -68 51
-18 133 -83 133 -106 0 -17 -3 -18 -15 -8 -12 10 -15 10 -15 -2 0 -9 -9 -27
-21 -42 -18 -23 -28 -26 -78 -26 -46 0 -66 5 -97 26 -61 41 -184 154 -184 169
0 22 -22 29 -32 11 -5 -9 -13 -16 -17 -16 -9 0 -27 39 -37 82 -5 24 -3 27 28
30 113 11 141 9 180 -17z m-1368 -228 c29 -20 33 -39 11 -57 -8 -7 -12 -16
-10 -20 3 -5 -12 -21 -32 -37 -21 -15 -45 -37 -52 -47 -14 -19 -15 -19 -27 10
-10 23 -9 36 2 63 8 18 14 44 14 56 0 13 12 38 27 55 25 30 27 31 34 13 4 -11
19 -27 33 -36z m1899 -23 c41 -22 149 -130 171 -171 9 -18 22 -62 30 -99 12
-58 12 -69 0 -81 -8 -8 -14 -11 -14 -7 0 3 -6 1 -14 -5 -22 -18 -63 13 -92 70
-37 73 -131 208 -185 266 -27 28 -49 54 -49 56 0 9 124 -14 153 -29z m-279
-129 c4 -13 2 -14 -14 -5 -23 13 -26 20 -6 20 8 0 16 -7 20 -15z m254 -314 c3
-8 -1 -12 -9 -9 -7 2 -15 10 -17 17 -3 8 1 12 9 9 7 -2 15 -10 17 -17z m-963
-1 c3 -5 2 -10 -4 -10 -5 0 -13 5 -16 10 -3 6 -2 10 4 10 5 0 13 -4 16 -10z
m90 0 c3 -5 -1 -10 -9 -10 -9 0 -16 5 -16 10 0 6 4 10 9 10 6 0 13 -4 16 -10z
m-38 -49 c4 -27 -12 -20 -20 9 -3 13 -1 20 5 18 6 -2 13 -14 15 -27z m-1727
-10 c12 -24 13 -78 1 -85 -15 -10 -28 17 -29 62 -1 45 11 55 28 23z m2310
-446 c0 -8 -7 -15 -15 -15 -8 0 -15 -5 -15 -12 0 -9 -3 -9 -12 0 -8 8 -8 15 2
27 16 19 40 20 40 0z m168 -86 c19 -17 32 -31 30 -32 -1 -1 -13 -8 -25 -14
-30 -17 -53 -16 -53 2 0 8 9 15 20 15 11 0 20 4 20 9 0 4 -15 8 -32 7 -27 0
-34 4 -36 22 -5 33 35 28 76 -9z m-227 -122 c26 -42 66 -125 89 -184 22 -60
50 -120 60 -135 11 -14 22 -41 25 -58 3 -18 15 -49 25 -71 11 -21 20 -50 20
-64 0 -14 7 -40 16 -57 33 -64 44 -119 32 -167 -33 -141 -55 -152 -122 -62
-24 34 -50 78 -56 99 -7 20 -20 51 -30 67 -22 37 -100 218 -105 245 -2 10 -24
77 -50 147 -25 70 -49 147 -52 169 -5 38 -3 44 26 65 18 13 31 32 31 44 0 24
19 47 35 42 5 -2 31 -38 56 -80z m705 -146 c45 -20 65 -41 40 -41 -9 0 -16 -7
-16 -15 0 -19 -3 -19 -53 6 -49 25 -60 39 -45 56 14 17 25 16 74 -6z m-94 -43
c-7 -7 -12 -8 -12 -2 0 14 12 26 19 19 2 -3 -1 -11 -7 -17z m122 -101 c19 -37
35 -71 36 -75 1 -31 16 -83 32 -116 11 -22 22 -68 24 -105 5 -63 19 -114 51
-174 9 -18 11 -32 6 -40 -6 -7 -16 -28 -23 -47 -7 -19 -23 -48 -35 -65 -12
-16 -25 -39 -29 -49 -10 -28 -19 -12 -54 89 -53 152 -60 170 -102 260 -23 48
-44 100 -47 115 -3 17 -13 30 -25 33 -30 8 -22 71 10 75 22 3 23 7 17 45 -4
23 -8 45 -9 49 0 3 4 8 9 10 6 1 11 -7 13 -19 4 -28 22 -31 22 -4 0 11 8 26
18 33 11 7 24 24 31 36 7 13 14 22 16 20 1 -1 19 -33 39 -71z m-284 -123 c0
-19 -16 -18 -24 2 -11 27 -7 37 9 24 8 -7 15 -19 15 -26z m-3555 -295 c0 -1
25 -3 55 -5 30 -2 93 -7 140 -10 47 -4 95 -7 108 -8 12 0 22 -3 22 -6 0 -3 10
-5 23 -6 21 0 46 -5 115 -19 17 -4 32 -10 32 -14 0 -4 9 -7 21 -8 25 -2 49
-21 49 -38 0 -16 -47 -48 -63 -42 -7 2 -22 0 -34 -4 -14 -5 -23 -5 -23 2 0 6
-6 6 -18 0 -22 -11 -84 -12 -76 0 2 4 -8 6 -23 5 -14 -2 -43 0 -62 5 -52 11
-102 20 -138 24 -17 2 -42 7 -55 11 -13 4 -34 8 -48 9 -14 1 -30 4 -35 7 -10
6 -68 20 -95 23 -68 8 -131 18 -165 27 -66 17 -75 17 -75 5 0 -8 -3 -7 -9 2
-5 8 -14 10 -21 6 -8 -5 -11 -3 -8 5 5 17 67 23 84 9 11 -9 14 -8 14 1 0 8 2
11 5 9 2 -3 37 0 77 6 58 9 203 11 203 4z m-1255 -198 c0 -5 18 -22 39 -38 57
-40 66 -65 41 -111 -11 -20 -20 -42 -20 -48 0 -11 -34 -31 -60 -36 -34 -5
-103 48 -125 97 -28 62 -27 72 6 109 27 31 37 36 75 36 24 0 44 -4 44 -9z
m-16 -271 c15 0 21 -17 16 -50 -2 -17 -34 -50 -48 -50 -5 0 -17 -10 -28 -22
-10 -12 -14 -18 -8 -15 7 4 17 0 24 -8 7 -8 18 -15 25 -15 17 0 36 -56 29 -86
-6 -22 -50 -41 -82 -35 -19 3 -144 89 -159 109 -24 30 -9 152 18 152 4 0 10
11 13 24 7 29 31 40 57 25 28 -14 59 -2 59 24 0 18 4 16 34 -16 18 -20 41 -37
50 -37z m2492 -206 c-7 -72 -29 -134 -45 -134 -15 0 -13 38 5 85 16 42 16 44
29 88 13 47 18 29 11 -39z m496 7 c42 -18 68 -43 131 -125 15 -20 80 -78 144
-129 120 -95 163 -126 343 -249 58 -39 156 -110 219 -157 142 -107 151 -113
176 -105 64 18 87 20 141 12 32 -5 82 -11 109 -13 138 -9 199 -43 212 -119 5
-32 2 -40 -30 -69 -23 -21 -48 -60 -66 -106 -34 -82 -80 -145 -120 -166 -76
-39 -225 34 -286 140 -7 12 -29 20 -69 26 -37 5 -63 14 -72 26 -41 51 -47 66
-45 113 2 54 -5 61 -109 116 -62 32 -80 43 -167 102 -34 23 -65 42 -68 42 -3
0 -33 22 -68 48 -34 27 -105 77 -157 112 -91 61 -140 97 -206 150 -17 14 -46
37 -65 52 -19 14 -52 41 -74 58 -43 35 -118 72 -176 88 -43 12 -92 51 -85 69
3 7 1 13 -4 13 -17 0 0 25 29 41 20 12 46 16 94 13 46 -3 80 2 118 15 69 25
97 25 151 2z m-750 -461 c36 -24 48 -39 58 -75 23 -82 -3 -168 -55 -181 -17
-4 -39 2 -71 21 -36 21 -52 39 -71 82 -30 66 -25 112 17 155 36 36 65 35 122
-2z m4773 -1240 c3 -5 1 -18 -4 -27 -6 -10 -11 -13 -11 -8 -1 6 -3 18 -5 28
-3 18 10 23 20 7z m-3677 -125 c2 -2 -4 -15 -15 -29 -30 -41 -148 -83 -199
-70 l-27 7 38 35 c23 22 35 41 32 52 -4 17 3 18 82 13 47 -2 88 -6 89 -8z
m3552 1 c0 -3 -4 -8 -10 -11 -5 -3 -10 -1 -10 4 0 6 5 11 10 11 6 0 10 -2 10
-4z m-116 -27 c-3 -5 0 -9 5 -9 6 0 11 -4 11 -10 0 -19 -17 -10 -28 15 -9 20
-9 23 3 18 8 -3 12 -9 9 -14z m77 8 c-6 -8 -7 -18 -3 -22 4 -5 1 -5 -6 -1 -10
6 -10 11 -1 22 6 8 14 14 16 14 3 0 0 -6 -6 -13z m-256 -36 c-4 -15 -2 -19 12
-16 10 2 20 4 23 4 3 1 -2 6 -10 11 -13 8 -13 10 2 10 25 0 31 -17 11 -29 -13
-7 -14 -10 -4 -11 8 0 11 -3 8 -6 -4 -4 -13 -1 -22 6 -20 17 -19 2 2 -24 9
-12 2 -7 -17 11 -28 27 -31 34 -20 47 17 21 23 20 15 -3z m155 9 c0 -5 -2 -10
-4 -10 -3 0 -8 5 -11 10 -3 6 -1 10 4 10 6 0 11 -4 11 -10z m-26 -18 c2 -4 -4
-8 -14 -8 -10 0 -16 4 -14 8 3 4 9 8 14 8 5 0 11 -4 14 -8z m-276 -98 c-4 -3
-12 5 -18 18 -12 22 -12 22 6 6 10 -10 15 -20 12 -24z m59 10 c-3 -3 -12 -4
-19 -1 -8 3 -5 6 6 6 11 1 17 -2 13 -5z m-68 -42 c0 -14 -2 -13 -9 3 -5 12 -9
14 -9 6 -1 -8 -4 -12 -7 -8 -9 9 6 28 17 22 5 -4 9 -14 8 -23z m-723 -234 c13
-16 14 -19 2 -10 -13 10 -17 10 -21 0 -3 -7 -4 -3 -4 10 1 12 2 22 3 22 0 0 9
-10 20 -22z m-75 -21 c-10 -9 -11 -8 -5 6 3 10 9 15 12 12 3 -3 0 -11 -7 -18z
m-33 -17 c7 -11 11 -20 9 -20 -2 0 -12 9 -22 20 -10 11 -14 20 -9 20 5 0 15
-9 22 -20z m-218 -60 c0 -5 -5 -10 -11 -10 -5 0 -7 5 -4 10 3 6 8 10 11 10 2
0 4 -4 4 -10z m-170 -42 c0 -4 -7 -8 -15 -8 -8 0 -15 -5 -15 -12 0 -6 -3 -9
-6 -5 -11 10 3 34 20 34 9 0 16 -4 16 -9z m70 -23 c14 -19 14 -19 -2 -6 -10 7
-18 18 -18 24 0 6 1 8 3 6 1 -2 9 -13 17 -24z m-240 5 c0 -5 -2 -10 -4 -10 -3
0 -8 5 -11 10 -3 6 -1 10 4 10 6 0 11 -4 11 -10z m50 -7 c0 -3 -7 -3 -15 1 -8
3 -15 0 -15 -6 0 -6 -3 -9 -6 -5 -11 10 6 26 21 20 8 -3 15 -7 15 -10z m108
-13 c-7 -10 -14 -17 -17 -15 -4 4 18 35 25 35 2 0 -1 -9 -8 -20z m-468 -94 c0
-2 -8 -10 -17 -17 -16 -13 -17 -12 -4 4 13 16 21 21 21 13z m-236 -72 c16 -6
12 -24 -5 -24 -6 0 -8 4 -5 9 4 5 0 12 -6 14 -7 3 -10 6 -6 6 3 1 13 -2 22 -5z
m-24 -28 c0 -2 -8 -10 -17 -17 -16 -13 -17 -12 -4 4 13 16 21 21 21 13z m-267
-98 c13 -10 14 -17 6 -28 -9 -12 -10 -11 -4 5 5 16 4 18 -6 8 -10 -10 -10 -16
-1 -25 17 -17 15 -31 -4 -24 -8 3 -12 2 -9 -4 3 -6 -1 -10 -10 -10 -12 0 -15
5 -10 18 4 9 9 28 11 42 4 20 3 23 -7 13 -7 -7 -18 -13 -23 -13 -11 1 23 30
34 30 3 0 14 -6 23 -12z m61 -20 c-6 -9 -34 1 -34 11 0 4 3 10 6 14 8 7 33
-16 28 -25z m-101 -15 c-7 -3 -14 -17 -14 -31 -1 -21 -2 -22 -6 -7 -3 11 -11
25 -18 31 -11 8 -7 11 18 11 18 0 26 -2 20 -4z m-18 -73 c3 -5 2 -10 -4 -10
-5 0 -13 5 -16 10 -3 6 -2 10 4 10 5 0 13 -4 16 -10z"/>
<path d="M3070 7480 c-9 -6 -10 -10 -3 -10 6 0 15 5 18 10 8 12 4 12 -15 0z"/>
<path d="M3140 7410 c-13 -9 -13 -10 0 -10 8 0 22 5 30 10 13 9 13 10 0 10 -8
0 -22 -5 -30 -10z"/>
<path d="M5305 6940 c-3 -6 1 -7 9 -4 18 7 21 14 7 14 -6 0 -13 -4 -16 -10z"/>
<path d="M7405 5193 c-60 -30 -86 -53 -129 -113 l-32 -45 52 -2 c42 -1 54 2
59 15 3 9 21 28 40 41 89 60 237 -27 261 -155 8 -46 29 -81 57 -95 18 -10 19
-9 14 12 -22 91 -91 244 -131 288 -35 39 -97 81 -120 81 -12 -1 -43 -12 -71
-27z"/>
<path d="M8380 4650 c8 -5 20 -10 25 -10 6 0 3 5 -5 10 -8 5 -19 10 -25 10 -5
0 -3 -5 5 -10z"/>
<path d="M8915 3999 c13 -40 24 -63 40 -83 25 -33 25 -13 -1 41 -26 56 -52 83
-39 42z"/>
<path d="M8980 3807 c0 -8 60 -137 64 -137 5 0 6 64 0 82 -5 15 -64 66 -64 55z"/>
<path d="M10206 1302 c-3 -5 1 -9 9 -9 8 0 12 4 9 9 -3 4 -7 8 -9 8 -2 0 -6
-4 -9 -8z"/>
<path d="M10041 1217 c-6 -8 -8 -17 -4 -20 12 -12 19 -7 19 13 0 24 0 24 -15
7z"/>
<path d="M9971 1199 c-1 -31 22 -44 47 -29 14 9 14 10 -5 5 -17 -5 -23 0 -31
22 l-10 28 -1 -26z"/>
<path d="M9973 1145 c0 -8 3 -13 6 -13 3 1 14 -2 24 -7 31 -13 30 3 0 19 -25
12 -30 12 -30 1z"/>
<path d="M9546 1013 c-5 -12 -4 -13 7 -5 8 7 16 9 19 6 3 -3 8 -1 11 3 3 5 -3
9 -13 10 -10 1 -21 -5 -24 -14z"/>
<path d="M9601 1016 c-8 -10 -9 -16 -1 -21 5 -3 13 1 16 10 9 22 -1 29 -15 11z"/>
<path d="M9666 1015 c-3 -9 0 -15 9 -15 9 0 12 6 9 15 -4 8 -7 15 -9 15 -2 0
-5 -7 -9 -15z"/>
<path d="M9573 983 c-7 -2 -9 -12 -6 -21 6 -15 5 -16 -12 -2 -11 9 -16 10 -11
3 4 -7 15 -17 25 -23 15 -7 18 -6 17 8 0 9 5 16 12 15 6 -2 12 1 12 6 0 11
-21 19 -37 14z"/>
<path d="M9421 941 c-8 -6 -9 -11 -3 -15 6 -3 14 -1 17 5 9 14 2 20 -14 10z"/>
<path d="M9305 921 c-3 -5 -2 -12 3 -15 5 -3 9 1 9 9 0 17 -3 19 -12 6z"/>
<path d="M9400 911 c0 -5 5 -13 10 -16 6 -3 10 -2 10 4 0 5 -4 13 -10 16 -5 3
-10 2 -10 -4z"/>
<path d="M9445 900 c3 -5 8 -10 11 -10 2 0 4 5 4 10 0 6 -5 10 -11 10 -5 0 -7
-4 -4 -10z"/>
<path d="M9287 869 c-22 -25 -22 -26 11 -24 35 2 54 13 46 26 -3 6 -12 5 -22
-3 -10 -8 -13 -9 -9 -1 13 21 -9 23 -26 2z"/>
<path d="M9155 841 c-3 -5 -2 -12 3 -15 5 -3 9 1 9 9 0 17 -3 19 -12 6z"/>
<path d="M9027 793 c-10 -9 -9 -33 1 -33 4 0 8 9 8 20 0 23 0 22 -9 13z"/>
<path d="M8780 690 c0 -5 5 -10 11 -10 5 0 7 5 4 10 -3 6 -8 10 -11 10 -2 0
-4 -4 -4 -10z"/>
<path d="M8740 679 c0 -5 5 -7 10 -4 6 3 10 8 10 11 0 2 -4 4 -10 4 -5 0 -10
-5 -10 -11z"/>
<path d="M8611 663 c-1 -7 -8 -10 -18 -6 -15 5 -14 3 2 -10 20 -16 31 -8 22
16 -4 9 -6 9 -6 0z"/>
<path d="M8695 660 c-3 -5 -1 -10 4 -10 6 0 11 5 11 10 0 6 -2 10 -4 10 -3 0
-8 -4 -11 -10z"/>
<path d="M8665 650 c3 -5 8 -10 11 -10 2 0 4 5 4 10 0 6 -5 10 -11 10 -5 0 -7
-4 -4 -10z"/>
<path d="M8413 615 c0 -8 4 -12 9 -9 4 3 8 9 8 15 0 5 -4 9 -8 9 -5 0 -9 -7
-9 -15z"/>
<path d="M8246 565 c-16 -12 -17 -15 -4 -15 9 0 18 7 22 15 7 18 6 18 -18 0z"/>
<path d="M8357 573 c-4 -3 -7 -11 -7 -17 0 -6 5 -5 12 2 6 6 9 14 7 17 -3 3
-9 2 -12 -2z"/>
<path d="M8280 556 c0 -2 7 -7 16 -10 8 -3 12 -2 9 4 -6 10 -25 14 -25 6z"/>
<path d="M7990 450 c0 -5 5 -10 11 -10 5 0 7 5 4 10 -3 6 -8 10 -11 10 -2 0
-4 -4 -4 -10z"/>
<path d="M7830 413 c0 -5 5 -15 10 -23 8 -12 10 -11 10 8 0 12 -4 22 -10 22
-5 0 -10 -3 -10 -7z"/>
<path d="M7530 290 c-9 -6 -10 -10 -3 -10 6 0 15 5 18 10 8 12 4 12 -15 0z"/>
<path d="M7490 279 c0 -5 5 -7 10 -4 6 3 10 8 10 11 0 2 -4 4 -10 4 -5 0 -10
-5 -10 -11z"/>
<path d="M10080 80 l0 -80 80 0 80 0 0 80 0 80 -80 0 -80 0 0 -80z"/>
</g>
</svg>
